Coordinates
version=1
nRows=14
nColumns=24
inDegrees=yes

Units are S.I. units (second, meters, Newtons, ...)
Angles are in degrees.

endheader
time	pelvis_tilt	pelvis_list	pelvis_rotation	pelvis_tx	pelvis_ty	pelvis_tz	hip_flexion_r	hip_adduction_r	hip_rotation_r	knee_angle_r	ankle_angle_r	subtalar_angle_r	mtp_angle_r	hip_flexion_l	hip_adduction_l	hip_rotation_l	knee_angle_l	ankle_angle_l	subtalar_angle_l	mtp_angle_l	lumbar_extension	lumbar_bending	lumbar_rotation
      3.84000000	    -16.76292977	     -4.45543535	      4.47552690	     -2.00276276	     -0.04088741	     -0.38216031	     43.95536061	      1.99118308	    -18.66531925	    -13.91847936	     -0.54930139	     -2.78983304	     19.35823881	     -0.60134290	     -4.29926319	     -5.69342438	    -17.09593996	      9.90495542	     11.42206522	      7.57672200	     19.47590393	     -1.45465555	    -19.86608781
      3.84500000	    -16.78974100	     -4.68404819	      4.59053056	     -1.99487328	     -0.04199308	     -0.38179357	     44.11365320	      2.12874512	    -18.54090542	    -14.74296361	     -1.25872277	     -3.87016303	     19.29343904	     -0.65312574	     -4.71011216	     -5.51054850	    -17.86094068	      9.46421585	     11.72085190	      7.65675226	     19.66220226	     -1.24475038	    -20.01876786
      3.85000000	    -16.80337479	     -4.90872427	      4.53752831	     -1.98686681	     -0.04310829	     -0.38117381	     44.27122672	      2.41112196	    -18.13608018	    -15.60818775	     -2.14655981	     -5.24576694	     19.19443719	     -0.73198853	     -5.15037212	     -5.67223700	    -18.64992461	      8.95333129	     12.15868702	      7.92340485	     19.84841615	     -0.97855963	    -19.96118616
      3.85500000	    -16.79300575	     -5.17898790	      4.65035096	     -1.97892893	     -0.04410636	     -0.38080591	     44.42244154	      2.59290772	    -17.96149989	    -16.55583172	     -3.04547923	     -6.55973788	     19.03677786	     -0.75783772	     -5.62144429	     -5.49490306	    -19.49888320	      8.36085258	     12.47610701	      8.16017392	     20.00205426	     -0.71778437	    -20.13322647
      3.86000000	    -16.82579494	     -5.43565304	      4.51901387	     -1.97086516	     -0.04517759	     -0.38006429	     44.63608058	      2.97743659	    -17.37169279	    -17.52919919	     -4.07246136	     -8.16502947	     18.67432593	     -0.75247351	     -6.12153979	     -5.81009326	    -20.38862724	      7.64610469	     12.93135438	      8.76536362	     20.21509296	     -0.39357140	    -20.01351093
      3.86500000	    -16.84937986	     -5.73817409	      4.50293100	     -1.96285179	     -0.04614966	     -0.37947975	     44.85255464	      3.31516730	    -16.89751426	    -18.55638381	     -5.02999260	     -9.72304432	     18.14377581	     -0.67372729	     -6.66022517	     -5.88897921	    -21.35719580	      6.82095518	     13.25011279	      9.40512608	     20.41348556	     -0.06351520	    -20.05356842
      3.87000000	    -16.88321499	     -6.02272548	      4.42314762	     -1.95479856	     -0.04710135	     -0.37878236	     45.11171597	      3.69791775	    -16.30843015	    -19.67117850	     -5.89944334	    -11.28986777	     17.26650944	     -0.57228300	     -7.19891616	     -6.07863435	    -22.33936164	      5.85264119	     13.62386618	     10.31334864	     20.62563455	      0.27111426	    -19.99841959
      3.87500000	    -16.86571658	     -6.25238353	      4.36812791	     -1.94692793	     -0.04797310	     -0.37800957	     45.36495712	      4.04169851	    -15.60846098	    -20.91938953	     -6.54831293	    -12.65178544	     15.57828725	     -0.45246212	     -7.70763243	     -6.27991313	    -23.37376163	      4.70900798	     14.00141170	     11.88118121	     20.74311957	      0.53239934	    -19.97771408
      3.88000000	    -16.89790532	     -6.57722547	      4.30362324	     -1.93888084	     -0.04879675	     -0.37733132	     45.64261466	      4.46516285	    -15.05218670	    -22.12066061	     -7.12800340	    -14.02793996	     14.23350781	     -0.23597549	     -8.29832461	     -6.41041018	    -24.49570273	      3.47330991	     14.25825882	     12.90051186	     20.95346850	      0.89871218	    -19.96667631
      3.88500000	    -16.81652492	     -6.84416681	      4.32289526	     -1.93101516	     -0.04946722	     -0.37669519	     45.82152456	      4.81554321	    -14.41668574	    -23.43696956	     -7.29236555	    -14.99899141	     11.79985355	     -0.05783739	     -8.83920593	     -6.46130152	    -25.63328208	      1.97485191	     14.29020244	     14.80973395	     21.00448983	      1.18169494	    -20.07841638
      3.89000000	    -16.83043467	     -7.14552360	      4.24124529	     -1.92306909	     -0.05022741	     -0.37594129	     46.08176803	      5.25388320	    -13.87076684	    -24.67610249	     -7.47168300	    -16.10564234	     10.47148671	      0.27886536	     -9.44100438	     -6.68026149	    -26.94286299	      0.50753250	     14.57208361	     15.87632509	     21.17350306	      1.52825533	    -20.05461581
      3.89500000	    -16.72073233	     -7.39604020	      4.28342984	     -1.91519268	     -0.05073904	     -0.37530358	     46.18249753	      5.59691761	    -13.34449767	    -25.95319705	     -7.23327124	    -16.79724053	      8.11992923	      0.53487698	     -9.97219357	     -6.65488616	    -28.16318465	     -1.32776964	     14.49526937	     17.94476177	     21.19618673	      1.78142421	    -20.19717509
      3.90000000	    -16.70180379	     -7.70158767	      4.25234464	     -1.90737198	     -0.05138252	     -0.37459609	     46.35601463	      6.01518180	    -12.94181815	    -27.13917722	     -7.01082096	    -17.54521989	      6.68385891	      0.98845363	    -10.58883381	     -6.78924700	    -29.59717783	     -3.08969489	     14.58305788	     19.34234037	     21.30895615	      2.11101734	    -20.25558267
      3.90500000	    -16.59624822	     -7.96382440	      4.33717269	     -1.89964942	     -0.05181175	     -0.37402941	     46.39231786	      6.32209750	    -12.68169818	    -28.28964459	     -6.53671307	    -18.04528888	      4.92863314	      1.42109615	    -11.12791451	     -6.66452945	    -30.99013345	     -5.13265850	     14.36877403	     21.26917463	     21.31823577	      2.36166211	    -20.43427057
